<svg aria-hidden="true" style="position: absolute; width: 0; height: 0; overflow: hidden;" version="1.1" xmlns="http://www.w3.org/2000/svg" xmlns:xlink="http://www.w3.org/1999/xlink">
<defs>
<symbol id="icon-Icon-Lighting" viewBox="0 0 23 32">
<path fill="none"  stroke-linejoin="round" stroke-linecap="round" stroke-miterlimit="4" stroke-width="1" d="M13.833 1v11.539h8.167l-12.833 18.462v-11.538h-8.167l12.833-18.462z"></path>
</symbol>
<symbol id="icon-Icon-Quality" viewBox="0 0 32 32">
<path fill="none"  stroke-linejoin="round" stroke-linecap="round" stroke-miterlimit="4" stroke-width="1" d="M30.841 8.136c-0.045-0.242-0.14-0.471-0.279-0.674s-0.319-0.374-0.529-0.502l-4.616 4.614c-0.215 0.223-0.473 0.401-0.759 0.522s-0.593 0.184-0.903 0.184c-0.31 0-0.617-0.063-0.903-0.184s-0.544-0.299-0.759-0.522l-1.754-1.569c-0.423-0.431-0.66-1.011-0.66-1.615s0.237-1.184 0.66-1.615l4.616-4.614c-0.101-0.236-0.252-0.448-0.444-0.619s-0.418-0.299-0.664-0.373c-1.61-0.321-3.279-0.184-4.815 0.397s-2.878 1.58-3.874 2.885c-0.996 1.305-1.605 2.864-1.758 4.498s0.156 3.279 0.892 4.746l-12.6 12.48c-0.22 0.215-0.394 0.471-0.514 0.755s-0.181 0.587-0.181 0.895c0 0.307 0.061 0.612 0.181 0.895s0.294 0.54 0.514 0.755l0.831 0.831c0.215 0.22 0.472 0.394 0.755 0.514s0.588 0.181 0.895 0.181c0.307 0 0.612-0.061 0.895-0.181s0.54-0.294 0.755-0.514l12.6-12.573c1.468 0.699 3.102 0.978 4.719 0.805s3.155-0.792 4.441-1.786c1.287-0.995 2.272-2.326 2.847-3.847s0.716-3.171 0.409-4.768v0z"></path>
</symbol>
<symbol id="icon-Icon-Star" viewBox="0 0 33 32">
<path fill="none"  stroke-linejoin="round" stroke-linecap="round" stroke-miterlimit="4" stroke-width="1.0323" d="M17.718 1.786l3.797 7.726c0.086 0.196 0.222 0.366 0.394 0.493s0.373 0.206 0.585 0.229l8.381 1.252c0.243 0.031 0.472 0.132 0.66 0.289s0.328 0.366 0.403 0.601c0.075 0.235 0.082 0.486 0.021 0.725s-0.189 0.455-0.367 0.623l-6.041 6.041c-0.154 0.145-0.27 0.327-0.337 0.529s-0.082 0.417-0.045 0.627l1.457 8.496c0.042 0.244 0.016 0.495-0.077 0.725s-0.247 0.428-0.446 0.574-0.435 0.232-0.68 0.249c-0.245 0.017-0.49-0.035-0.707-0.152l-7.545-4.020c-0.193-0.096-0.406-0.145-0.621-0.145s-0.428 0.050-0.621 0.145l-7.545 4.020c-0.217 0.116-0.462 0.169-0.707 0.152s-0.481-0.103-0.68-0.249-0.354-0.344-0.446-0.574c-0.092-0.23-0.119-0.481-0.077-0.725l1.457-8.593c0.037-0.209 0.021-0.425-0.045-0.627s-0.182-0.383-0.337-0.529l-6.113-5.945c-0.181-0.173-0.308-0.395-0.366-0.64s-0.045-0.501 0.039-0.737c0.083-0.237 0.233-0.444 0.431-0.597s0.436-0.245 0.684-0.264l8.381-1.252c0.212-0.024 0.413-0.103 0.585-0.229s0.308-0.297 0.394-0.493l3.797-7.726c0.103-0.225 0.268-0.416 0.476-0.549s0.448-0.204 0.694-0.204 0.487 0.071 0.694 0.204c0.207 0.133 0.372 0.324 0.476 0.549v0z"></path>
</symbol>
<symbol id="icon-Icon-Lamp" viewBox="0 0 23 32">
<path fill="none"  stroke-linejoin="round" stroke-linecap="round" stroke-miterlimit="4" stroke-width="1" d="M22.023 11.491c0.013-1.86-0.472-3.689-1.405-5.298s-2.279-2.939-3.9-3.852c-1.62-0.913-3.456-1.375-5.315-1.339s-3.675 0.569-5.259 1.544-2.878 2.356-3.748 3.999c-0.87 1.644-1.284 3.49-1.2 5.348s0.665 3.659 1.681 5.217 2.43 2.815 4.096 3.642v3.473c0 0.307 0.122 0.602 0.339 0.819s0.512 0.339 0.819 0.339h6.946c0.307 0 0.601-0.122 0.819-0.339s0.339-0.512 0.339-0.819v-3.473c1.731-0.853 3.189-2.171 4.212-3.807s1.569-3.525 1.576-5.454v0z"></path>
<path fill="none"  stroke-linejoin="round" stroke-linecap="round" stroke-miterlimit="4" stroke-width="1" d="M6.973 31.171h9.261"></path>
</symbol>
<symbol id="icon-arrow-1" viewBox="0 0 90 32">
<path fill="none" stroke="#fff" style="stroke: var(--color2, #fff)" stroke-linejoin="round" stroke-linecap="round" stroke-miterlimit="4" stroke-width="1.28" d="M73.813 22.482l7.811-6.695-7.811-6.695"></path>
<path fill="none" stroke="#fff" style="stroke: var(--color2, #fff)" stroke-linejoin="round" stroke-linecap="round" stroke-miterlimit="4" stroke-width="1.28" d="M81.624 15.787h-15.623"></path>
<path fill="none" stroke="#fff" style="stroke: var(--color2, #fff)" stroke-linejoin="round" stroke-linecap="round" stroke-miterlimit="4" stroke-width="1.28" d="M88.32 15.787c0-8.012-6.495-14.507-14.507-14.507s-14.507 6.495-14.507 14.507c0 8.012 6.495 14.507 14.507 14.507s14.507-6.495 14.507-14.507z"></path>
<path fill="none" stroke="#898d92" style="stroke: var(--color1, #898d92)" stroke-linejoin="round" stroke-linecap="round" stroke-miterlimit="4" stroke-width="1.28" d="M15.787 22.482l-7.811-6.695 7.811-6.695"></path>
<path fill="none" stroke="#898d92" style="stroke: var(--color1, #898d92)" stroke-linejoin="round" stroke-linecap="round" stroke-miterlimit="4" stroke-width="1.28" d="M7.975 15.787h15.623"></path>
<path fill="none" stroke="#898d92" style="stroke: var(--color1, #898d92)" stroke-linejoin="round" stroke-linecap="round" stroke-miterlimit="4" stroke-width="1.28" d="M1.28 15.787c0-8.012 6.495-14.507 14.507-14.507s14.507 6.495 14.507 14.507c0 8.012-6.495 14.507-14.507 14.507s-14.507-6.495-14.507-14.507z"></path>
</symbol>
<symbol id="icon-Icon-Agency" viewBox="0 0 32 32">
<path fill="none"   stroke-linejoin="round" stroke-linecap="round" stroke-miterlimit="4" stroke-width="1" d="M1 31.112h25.468"></path>
<path fill="none"   stroke-linejoin="round" stroke-linecap="round" stroke-miterlimit="4" stroke-width="1" d="M14.892 23.009l-6.946 1.25 1.158-7.038 15.582-15.536c0.215-0.217 0.471-0.389 0.753-0.507s0.585-0.178 0.89-0.178c0.306 0 0.608 0.061 0.89 0.178s0.538 0.29 0.753 0.507l2.454 2.454c0.217 0.215 0.389 0.471 0.507 0.753s0.178 0.585 0.178 0.89-0.061 0.608-0.178 0.89c-0.117 0.282-0.29 0.538-0.507 0.753l-15.536 15.582z"></path>
</symbol>
<symbol id="icon-Vector-2" viewBox="0 0 0 32">
<path fill="none" stroke="#fff" style="stroke: var(--color2, #fff)" stroke-linejoin="miter" stroke-linecap="butt" stroke-miterlimit="4" stroke-width="0.2513" d="M0.168 0v31.916"></path>
</symbol>
<symbol id="icon-arrow-2" viewBox="0 0 6 32">
<path d="M2.557 31.796c0.147 0.147 0.385 0.147 0.532 0l2.396-2.396c0.147-0.147 0.147-0.385 0-0.532s-0.385-0.147-0.532 0l-2.13 2.13-2.13-2.13c-0.147-0.147-0.385-0.147-0.532 0s-0.147 0.385 0 0.532l2.396 2.396zM2.447 0v31.529h0.753v-31.529h-0.753z"></path>
</symbol>

<symbol id="icon-in" viewBox="0 0 29 32">
<path stroke-linejoin="round" stroke-linecap="round" stroke-miterlimit="4" stroke-width="1.5" d="M6.91 4.14c0.006 0.77-0.291 1.512-0.828 2.065s-1.269 0.873-2.039 0.89c-0.769-0.028-1.497-0.351-2.035-0.901s-0.844-1.285-0.854-2.055c0.033-0.749 0.35-1.458 0.887-1.982s1.252-0.825 2.002-0.841c0.748 0.016 1.461 0.318 1.994 0.842s0.845 1.233 0.873 1.98zM1.463 12.343c0-1.698 1.081-1.433 2.58-1.433s2.558-0.265 2.558 1.433v16.54c0 1.72-1.081 1.367-2.558 1.367s-2.58 0.353-2.58-1.367v-16.54z"></path>
<path stroke-linejoin="round" stroke-linecap="round" stroke-miterlimit="4" stroke-width="1.5" d="M11.056 12.344c0-0.948 0.353-1.301 0.904-1.411s2.448 0 3.11 0 0.926 1.081 0.904 1.896c0.566-0.759 1.317-1.361 2.182-1.747s1.814-0.544 2.758-0.458c0.926-0.057 1.854 0.082 2.723 0.408s1.66 0.83 2.321 1.481c0.661 0.651 1.178 1.434 1.518 2.298s0.493 1.789 0.451 2.716v11.291c0 1.72-1.058 1.367-2.558 1.367s-2.558 0.353-2.558-1.367v-8.821c0.039-0.454-0.021-0.911-0.174-1.34s-0.398-0.82-0.715-1.146c-0.318-0.326-0.703-0.581-1.127-0.745s-0.88-0.236-1.335-0.209c-0.453-0.012-0.903 0.073-1.32 0.249s-0.793 0.438-1.102 0.769c-0.309 0.331-0.543 0.725-0.688 1.154s-0.198 0.884-0.154 1.335v8.821c0 1.72-1.081 1.367-2.58 1.367s-2.558 0.353-2.558-1.367v-16.54z"></path>
</symbol>
<symbol id="icon-facebook" viewBox="0 0 18 32">
<path stroke-linejoin="round" stroke-linecap="round" stroke-miterlimit="4" stroke-width="1.5484" d="M11.199 9.27c0-2.276 1.138-2.276 2.276-2.276h1.366c0.228 0.003 0.454-0.040 0.666-0.125s0.403-0.213 0.565-0.374c0.161-0.161 0.289-0.353 0.374-0.564s0.129-0.438 0.126-0.666v-2.14c0-0.229-0.046-0.456-0.134-0.667s-0.218-0.403-0.381-0.564c-0.163-0.161-0.357-0.288-0.569-0.373s-0.44-0.128-0.669-0.125l-3.233-0.046c-0.941-0.036-1.879 0.132-2.749 0.493s-1.651 0.907-2.289 1.6c-0.638 0.693-1.119 1.515-1.409 2.412s-0.381 1.845-0.268 2.78v3.301h-1.798c-0.459 0-0.899 0.182-1.223 0.507s-0.507 0.765-0.507 1.223v2.14c0 0.459 0.182 0.899 0.507 1.223s0.765 0.507 1.223 0.507h1.798v12.225c0 0.302 0.12 0.591 0.333 0.805s0.503 0.333 0.805 0.333h4.12c0.29-0.017 0.562-0.145 0.761-0.357s0.309-0.491 0.309-0.782v-12.225h2.003c0.459 0 0.899-0.182 1.223-0.507s0.507-0.765 0.507-1.223v-2.14c0-0.459-0.182-0.899-0.507-1.223s-0.765-0.507-1.223-0.507h-2.003v-2.663z"></path>
</symbol>
<symbol id="icon-google" viewBox="0 0 29 32">
<path stroke-linejoin="round" stroke-linecap="round" stroke-miterlimit="4" stroke-width="1.5" d="M23.825 13.387h-5.491c-0.15 0-0.298 0.030-0.436 0.088s-0.263 0.143-0.368 0.249c-0.105 0.107-0.187 0.233-0.242 0.372s-0.082 0.288-0.079 0.437v3.109c0 0.298 0.119 0.584 0.329 0.795s0.497 0.329 0.795 0.329h2.845c0.016 0.852-0.148 1.698-0.481 2.483s-0.828 1.49-1.452 2.071-1.364 1.023-2.171 1.299c-0.807 0.275-1.663 0.378-2.512 0.3-4.94 0-7.322-4.19-7.322-8.954s2.558-8.954 7.322-8.954c2.103-0.070 4.164 0.601 5.822 1.897 0.133 0.087 0.282 0.143 0.439 0.166s0.317 0.010 0.468-0.036 0.291-0.125 0.409-0.232c0.118-0.106 0.21-0.237 0.272-0.383l1.389-3.176c0.114-0.234 0.144-0.501 0.084-0.754s-0.207-0.478-0.414-0.635c-2.529-1.512-5.434-2.277-8.38-2.205-8.027-0.022-13.496 6.219-13.496 14.312s5.491 14.335 13.408 14.335c7.917 0 12.703-5.646 12.703-13.232 0-2.426-0.97-3.683-3.44-3.683z"></path>
</symbol>
<symbol id="icon-twitter" viewBox="0 0 36 32">
<path stroke-linejoin="round" stroke-linecap="round" stroke-miterlimit="4" stroke-width="1.7778" d="M9.906 22.437c-1.866 1.466-4.008 2.541-6.299 3.163-0.252 0.091-0.47 0.259-0.624 0.478s-0.237 0.482-0.237 0.75c0 0.268 0.083 0.53 0.237 0.75s0.372 0.387 0.624 0.478c18.087 7.423 29.587-4.051 27.836-16.78l2.927-6.064h-3.398c-4.234-5.201-15.473-4.94-13.617 6.142 0 0-6.012 1.072-13.696-6.482-0.178-0.175-0.402-0.296-0.646-0.348s-0.498-0.033-0.732 0.055c-0.234 0.088-0.437 0.241-0.587 0.441s-0.238 0.439-0.256 0.688c-0.813 3.34-0.406 6.86 1.147 9.927s4.149 5.478 7.322 6.801v0z"></path>
</symbol>
<symbol id="icon-Group-23" viewBox="0 0 125 32">
<path fill="#fff" style="fill: var(--color1, #fff)" opacity="0.37" d="M29.365 16c0 8.109-6.573 14.682-14.682 14.682s-14.682-6.573-14.682-14.682c0-8.109 6.574-14.682 14.682-14.682s14.682 6.574 14.682 14.682z"></path>
<path fill="#233942" style="fill: var(--color2, #233942)" d="M77.082 16c0 8.109-6.573 14.682-14.682 14.682s-14.682-6.573-14.682-14.682c0-8.109 6.574-14.682 14.682-14.682s14.682 6.574 14.682 14.682z"></path>
<path fill="#fff" style="fill: var(--color1, #fff)" opacity="0.37" d="M124.8 16c0 8.109-6.573 14.682-14.682 14.682s-14.682-6.573-14.682-14.682c0-8.109 6.573-14.682 14.682-14.682s14.682 6.574 14.682 14.682z"></path>
</symbol>
<symbol id="icon-Vector-8" viewBox="0 0 5088 32">
<path fill="none" stroke="#fff" style="stroke: var(--color1, #fff)" stroke-linejoin="miter" stroke-linecap="butt" stroke-miterlimit="4" stroke-width="16" d="M0 16h5080"></path>
</symbol>
<symbol id="icon-Vector-3" viewBox="0 0 113 32">
<path fill="none" stroke="#898d92" style="stroke: var(--color1, #898d92)" stroke-linejoin="miter" stroke-linecap="butt" stroke-miterlimit="4" stroke-width="0.7059" d="M112.471 11.418v-10.947h-112v31.059h112v-7.892"></path>
</symbol>
<symbol id="icon-Vector-6" viewBox="0 0 164 32">
<path fill="#fff" style="fill: var(--color1, #fff)" d="M163.414 17.414c0.781-0.781 0.781-2.047 0-2.828l-12.728-12.728c-0.781-0.781-2.047-0.781-2.828 0s-0.781 2.047 0 2.828l11.314 11.314-11.314 11.314c-0.781 0.781-0.781 2.047 0 2.828s2.047 0.781 2.828 0l12.728-12.728zM0 18l162 0v-4l-162-0v4z"></path>
</symbol>

</symbol>
</defs>
</svg>
